<svg xmlns="http://www.w3.org/2000/svg" viewBox="0 0 1372 402.58"><defs><style>.f42f9afe-670f-4d2f-a5ba-0138f45609ed{fill:#e5f5fd;}.b417cca0-6d6e-4085-bda2-f1613e90139c{fill:#a3def6;}.e862bb46-a8ee-4ddc-8bcf-f46f713b911f{fill:#e2abcb;}.bb038013-fb09-4038-b237-b09f0d7d41b4{fill:#dde78e;}.a63faff5-ba9a-4bfc-b749-987f109b0001{fill:#fcf5a9;}.e40435ea-1855-4fd6-9236-287566c35a43{fill:#0fabe6;}.ad1c4d68-d338-4c62-809d-b6527c72e920{fill:#d26ca8;}</style></defs><title>trifectamedspa+circle2</title><circle class="f42f9afe-670f-4d2f-a5ba-0138f45609ed" cx="201.29" cy="201.29" r="201.29"/><circle class="b417cca0-6d6e-4085-bda2-f1613e90139c" cx="201.29" cy="201.29" r="167.56"/><circle class="e862bb46-a8ee-4ddc-8bcf-f46f713b911f" cx="141.13" cy="232.22" r="100.65"/><circle class="bb038013-fb09-4038-b237-b09f0d7d41b4" cx="200.73" cy="133.26" r="100.65"/><circle class="a63faff5-ba9a-4bfc-b749-987f109b0001" cx="260.33" cy="233.34" r="100.65"/><path class="e40435ea-1855-4fd6-9236-287566c35a43" d="M491.9,230.68V93.1H442.49V81.4H555.6V93.1H504.46V230.68Z" transform="translate(-5 -9)"/><path class="e40435ea-1855-4fd6-9236-287566c35a43" d="M675.2,230.68l-42-65.65c-4.76.44-9.1.44-12.78.44H594.81v65.21H582.46V81.4H621.9c15.38,0,26.86,1.3,34.66,3.9,14.74,4.76,23.62,18.2,23.62,37.48,0,20.58-11.7,33.37-28.17,38.79a49.23,49.23,0,0,1-6.06,1.51l44.2,67.6Zm-53.3-76.26c12.13,0,22.31-2,28.38-4.34,10.62-4.33,16.9-13.43,16.9-26.65,0-11.27-4.33-20.8-13.43-25.78-6.72-3.47-20.15-5-30.77-5H594.81v61.76Z" transform="translate(-5 -9)"/><path class="e40435ea-1855-4fd6-9236-287566c35a43" d="M714.85,230.68V81.4H727.2V230.68Z" transform="translate(-5 -9)"/><path class="e40435ea-1855-4fd6-9236-287566c35a43" d="M770.09,230.68V81.4H853.3V93.1H782.45v58.5h66.08v11.27H782.45v67.81Z" transform="translate(-5 -9)"/><path class="e40435ea-1855-4fd6-9236-287566c35a43" d="M884.28,230.68V81.4h85.8V93.1H896.63v54.16h69.12v11.49H896.63V219.2h77.14v11.48Z" transform="translate(-5 -9)"/><path class="e40435ea-1855-4fd6-9236-287566c35a43" d="M1071.92,233.72c-42.26,0-76.27-28.6-76.27-77.79,0-49.83,36.61-78,78.43-78,15.82,0,34.67,5.2,43.34,13.43v14.3h-.87c-9.32-10.18-27.52-16-42.9-16-37.7,0-65.22,26-65.22,65.43,0,42.69,27.3,67,64.78,67,17.77,0,32.94-6.29,44-16.9h.87v13.65C1109,227.22,1090.12,233.72,1071.92,233.72Z" transform="translate(-5 -9)"/><path class="e40435ea-1855-4fd6-9236-287566c35a43" d="M1179,230.68V93.1h-49.4V81.4h113.1V93.1h-51.13V230.68Z" transform="translate(-5 -9)"/><path class="e40435ea-1855-4fd6-9236-287566c35a43" d="M1239.4,230.68,1301.59,81.4h11.26l60.89,149.28h-14.08l-19.07-47.45h-68.25l-19.51,47.45Zm96.85-58.93c-20.15-50.27-25.13-63-29.25-74.75-3.9,11.26-9.53,24.7-30.11,74.75Z" transform="translate(-5 -9)"/><path class="ad1c4d68-d338-4c62-809d-b6527c72e920" d="M451.78,343.92V274.78h7c19.47,36.83,21.48,40.44,25.19,48.27,3.52-7.33,5.93-11.94,25.09-48.27h6.83v69.14H510c0-39.44,0-52.69.3-60.71-3.62,7.32-7,14.05-24.59,46.86h-3.91c-18.07-34.52-20.38-38.84-24.69-46.86.3,10,.4,22.58.4,60.71Z" transform="translate(-5 -9)"/><path class="ad1c4d68-d338-4c62-809d-b6527c72e920" d="M530.46,343.92V274.78H570.2v5.42h-34v25.08h32v5.32h-32v28h35.73v5.32Z" transform="translate(-5 -9)"/><path class="ad1c4d68-d338-4c62-809d-b6527c72e920" d="M581.34,274.78h18c8.33,0,14.75.9,19.27,2.2,12.54,3.72,21.17,13.45,21.17,31.52,0,15.95-6.72,27.29-20.47,32.41-5.52,2-12.65,3-22.28,3H581.34ZM599,338.6c9.43,0,16.86-1.8,21.17-4.11,9-4.72,13.35-13.75,13.35-25.79,0-11.14-4.31-21.78-15.45-25.9a53.07,53.07,0,0,0-17.47-2.6H587v58.4Z" transform="translate(-5 -9)"/><path class="ad1c4d68-d338-4c62-809d-b6527c72e920" d="M662.23,330.27h.41c5.72,5.82,13.54,9.54,23.78,9.54,13.85,0,18.47-5.82,18.47-13.55,0-6.32-4.52-9.53-15.56-13.05L678,309.5c-10-3.21-14.55-9.23-14.55-17.16,0-11.64,9.23-19.17,24.69-19.17,7.52,0,16.35,2.81,19.77,6.22V286h-.4c-5-4.92-13-7.43-20.08-7.43-13.44,0-18.06,6.32-18.06,13.25,0,6.42,3.91,10,13,12.94l12.24,3.92C704.89,312,711,316.32,711,325.76c0,10.43-6.93,19.57-25,19.57-9.13,0-18.37-3-23.79-7.93Z" transform="translate(-5 -9)"/><path class="ad1c4d68-d338-4c62-809d-b6527c72e920" d="M719.74,343.92V274.78h19.57c7.13,0,11.94.7,16,2.1,6.72,2.41,10.84,8.83,10.84,17.87,0,9.73-4.12,16.46-13.05,19.47-3.81,1.3-10,2-14.85,2H725.46v27.7Zm18.77-33c5.92,0,11.54-1,14-2.2,4.51-2.11,7.42-6.33,7.42-13.85,0-5.42-2-10.34-7.12-12.75-3.11-1.5-9.23-2-13.75-2H725.46V310.9Z" transform="translate(-5 -9)"/><path class="ad1c4d68-d338-4c62-809d-b6527c72e920" d="M758.88,343.92l28.8-69.14h5.22l28.2,69.14h-6.52l-8.83-22H774.14l-9,22Zm44.86-27.29c-9.33-23.29-11.64-29.21-13.55-34.63-1.8,5.22-4.41,11.44-14,34.63Z" transform="translate(-5 -9)"/><path class="ad1c4d68-d338-4c62-809d-b6527c72e920" d="M867.37,340.51V316.63H843.58V312h23.69V288.42H872V312h23.78v4.62H872v23.88Z" transform="translate(-5 -9)"/><path class="ad1c4d68-d338-4c62-809d-b6527c72e920" d="M938.52,343.92l-19.77-69.14h6.43C937.12,317,939,324.05,941.54,334.39c2.91-10.14,5.31-17.46,19.46-59.61h5.22c13.65,43.05,15.66,49.37,18.67,59.61,2.51-9.94,4.41-16.76,17-59.61h6.52L987.3,343.92h-5.22c-13.15-41.55-15.46-48.47-18.77-60.21-3.41,11.24-6,18.76-19.57,60.21Z" transform="translate(-5 -9)"/><path class="ad1c4d68-d338-4c62-809d-b6527c72e920" d="M1014.9,343.92V274.78h39.74v5.42h-34v25.08h32v5.32h-32v28h35.73v5.32Z" transform="translate(-5 -9)"/><path class="ad1c4d68-d338-4c62-809d-b6527c72e920" d="M1065.78,343.92V274.78h5.72V338.5h34.43v5.42Z" transform="translate(-5 -9)"/><path class="ad1c4d68-d338-4c62-809d-b6527c72e920" d="M1115.06,343.92V274.78h5.72V338.5h34.42v5.42Z" transform="translate(-5 -9)"/><path class="ad1c4d68-d338-4c62-809d-b6527c72e920" d="M1164.34,343.92V274.78h6c32,46,34.92,50.17,40,58.4-.2-11.44-.3-23.48-.3-58.4h5.72v69.14H1211c-30.11-43.85-36.13-53-41.14-60.71.2,13.14.2,24.08.2,60.71Z" transform="translate(-5 -9)"/><path class="ad1c4d68-d338-4c62-809d-b6527c72e920" d="M1230.47,343.92V274.78h39.74v5.42h-34v25.08h32v5.32h-32v28h35.73v5.32Z" transform="translate(-5 -9)"/><path class="ad1c4d68-d338-4c62-809d-b6527c72e920" d="M1276,330.27h.4c5.72,5.82,13.55,9.54,23.78,9.54,13.85,0,18.47-5.82,18.47-13.55,0-6.32-4.52-9.53-15.56-13.05l-11.34-3.71c-10-3.21-14.55-9.23-14.55-17.16,0-11.64,9.23-19.17,24.69-19.17,7.53,0,16.36,2.81,19.77,6.22V286h-.4c-5-4.92-13-7.43-20.07-7.43-13.45,0-18.07,6.32-18.07,13.25,0,6.42,3.92,10,13,12.94l12.24,3.92c10.24,3.31,16.36,7.62,16.36,17.06,0,10.43-6.92,19.57-25,19.57-9.13,0-18.36-3-23.78-7.93Z" transform="translate(-5 -9)"/><path class="ad1c4d68-d338-4c62-809d-b6527c72e920" d="M1328.22,330.27h.41c5.72,5.82,13.54,9.54,23.78,9.54,13.85,0,18.47-5.82,18.47-13.55,0-6.32-4.52-9.53-15.56-13.05L1344,309.5c-10-3.21-14.55-9.23-14.55-17.16,0-11.64,9.23-19.17,24.69-19.17,7.52,0,16.35,2.81,19.77,6.22V286h-.4c-5-4.92-13-7.43-20.08-7.43-13.44,0-18.06,6.32-18.06,13.25,0,6.42,3.91,10,13.05,12.94l12.24,3.92c10.24,3.31,16.36,7.62,16.36,17.06,0,10.43-6.93,19.57-25,19.57-9.13,0-18.37-3-23.79-7.93Z" transform="translate(-5 -9)"/></svg>